<svg width="40" height="41" viewBox="0 0 40 41" fill="none" xmlns="http://www.w3.org/2000/svg">
<path fill-rule="evenodd" clip-rule="evenodd" d="M35.113 0.833008C37.8102 0.833008 40 3.01252 40 5.69698V35.7803C40 38.4647 37.8102 40.6442 35.113 40.6442H26.7952V25.6439H31.9983L32.9883 19.2196H26.7952V15.0505C26.7952 13.293 27.6602 11.5798 30.4342 11.5798H33.25V6.11041C33.25 6.11041 30.6945 5.67637 28.2514 5.67637C23.1508 5.67637 19.817 8.75311 19.817 14.3232V19.2196H14.1473V25.6439H19.817V40.6442H4.88703C2.18984 40.6442 0 38.4647 0 35.7803V5.69698C0 3.01252 2.18977 0.833008 4.88703 0.833008H35.113V0.833008Z" fill="#F5F5F5"/>
</svg>
