<svg width="40" height="41" viewBox="0 0 40 41" fill="none" xmlns="http://www.w3.org/2000/svg">
<path d="M34.3699 0.833008H5.63001C4.13683 0.833008 2.70481 1.42336 1.64899 2.4742C0.59316 3.52507 0 4.95031 0 6.43644V35.0408C0 36.527 0.59316 37.9523 1.64899 39.003C2.70481 40.0538 4.13683 40.6442 5.63001 40.6442H34.3699C35.8631 40.6442 37.2951 40.0538 38.3509 39.003C39.4069 37.9523 39.9999 36.527 39.9999 35.0408V6.43644C39.9999 4.95031 39.4069 3.52507 38.3509 2.4742C37.2951 1.42336 35.8631 0.833008 34.3699 0.833008ZM13.335 32.6422C13.335 32.7417 13.2675 32.891 13.135 33.0925C12.935 33.2269 12.7825 33.2916 12.6825 33.2916H8.05751C7.95751 33.2916 7.80751 33.2269 7.60751 33.0925C7.47251 32.8935 7.40501 32.7442 7.40501 32.6422V16.4838C7.40501 16.3843 7.47251 16.235 7.60501 16.0359C7.80501 15.9016 7.95501 15.8344 8.05751 15.8344H12.6825C12.7825 15.8344 12.9325 15.9016 13.1325 16.0334C13.2675 16.2325 13.335 16.3818 13.335 16.4838V32.6422ZM12.5825 13.0824C12.2951 13.375 11.9505 13.6058 11.5699 13.7608C11.1894 13.9157 10.781 13.9914 10.37 13.9831C9.49751 13.9831 8.76251 13.6846 8.15751 13.0824C7.86343 12.7964 7.63138 12.4535 7.47573 12.0747C7.32008 11.696 7.24411 11.2895 7.25251 10.8804C7.25251 10.0468 7.55501 9.33022 8.15751 8.73056C8.44171 8.43036 8.78458 8.19117 9.16506 8.02769C9.54553 7.86422 9.95558 7.77987 10.37 7.77987C10.7844 7.77987 11.1945 7.86422 11.5749 8.02769C11.9554 8.19117 12.2983 8.43036 12.5825 8.73056C13.1825 9.32773 13.485 10.0493 13.485 10.8804C13.485 11.7487 13.185 12.4828 12.5825 13.0824ZM32.9874 32.6422C32.9866 32.7268 32.9686 32.8104 32.9341 32.8878C32.8999 32.9654 32.8499 33.0351 32.7874 33.0925C32.7296 33.1545 32.6596 33.2043 32.5819 33.2386C32.5041 33.2727 32.4201 33.2909 32.3349 33.2916H27.6099C27.5099 33.2916 27.3599 33.2269 27.1599 33.0925C27.0249 32.8935 26.9574 32.7442 26.9574 32.6422V22.7889C26.9574 21.9529 26.8074 21.3034 26.5049 20.8357C26.1349 20.4375 25.5324 20.2385 24.6949 20.2385C23.6225 20.2385 22.8525 20.552 22.3825 21.1865C21.9475 21.821 21.73 22.7217 21.73 23.8887V32.6422C21.7292 32.7268 21.711 32.8104 21.6767 32.8878C21.6423 32.9654 21.5924 33.0351 21.53 33.0925C21.4718 33.155 21.4015 33.2048 21.3232 33.2391C21.245 33.2732 21.1605 33.2911 21.075 33.2916H16.45C16.35 33.2916 16.2 33.2269 16 33.0925C15.865 32.8935 15.8 32.7442 15.8 32.6422V16.4838C15.8 16.3843 15.865 16.235 16 16.0359C16.2 15.9016 16.35 15.8344 16.45 15.8344H20.925C21.06 15.8344 21.1925 15.8667 21.325 15.9339C21.395 15.9687 21.4625 16.0832 21.5275 16.2822V16.5336L21.5775 16.6331V17.0337C22.685 15.9687 24.21 15.4338 26.1524 15.4338C28.3299 15.4338 30.0049 15.9513 31.1774 16.9839C32.3849 18.0837 32.9874 19.6712 32.9874 21.7364V32.6422Z" fill="#F5F5F5"/>
</svg>
