<svg width="40" height="41" viewBox="0 0 40 41" fill="none" xmlns="http://www.w3.org/2000/svg">
<path fill-rule="evenodd" clip-rule="evenodd" d="M35.113 0.833008C37.8102 0.833008 40 3.01252 40 5.69698V35.7803C40 38.4647 37.8102 40.6442 35.113 40.6442H4.88703C2.18984 40.6442 0 38.4647 0 35.7803V5.69698C0 3.01252 2.18977 0.833008 4.88703 0.833008H35.113V0.833008ZM20 7.13127C16.287 7.13127 15.8213 7.1469 14.3631 7.21315C12.9079 7.27924 11.9141 7.50924 11.0444 7.84569C10.1453 8.19342 9.38289 8.65871 8.62281 9.41513C7.86273 10.1716 7.39523 10.9305 7.04586 11.8253C6.70789 12.6908 6.4768 13.68 6.41031 15.1283C6.34383 16.5797 6.32812 17.0431 6.32812 20.7386C6.32812 24.4341 6.34383 24.8976 6.41031 26.3489C6.4768 27.7973 6.70789 28.7864 7.04586 29.652C7.39523 30.5467 7.86273 31.3056 8.62281 32.0621C9.38289 32.8186 10.1453 33.2839 11.0444 33.6316C11.9141 33.968 12.9079 34.198 14.3631 34.2641C15.8213 34.3303 16.287 34.346 20 34.346C23.713 34.346 24.1787 34.3303 25.6369 34.2641C27.0921 34.198 28.0859 33.968 28.9556 33.6316C29.8546 33.2839 30.6171 32.8186 31.3772 32.0621C32.1373 31.3056 32.6048 30.5467 32.9541 29.652C33.2921 28.7864 33.5232 27.7973 33.5896 26.3489C33.6562 24.8976 33.6719 24.4341 33.6719 20.7386C33.6719 17.0431 33.6562 16.5797 33.5896 15.1283C33.5232 13.68 33.2921 12.6908 32.9541 11.8253C32.6048 10.9305 32.1373 10.1716 31.3772 9.41513C30.6171 8.65871 29.8546 8.19342 28.9556 7.84569C28.0859 7.50924 27.0921 7.27924 25.6369 7.21315C24.1787 7.1469 23.713 7.13127 20 7.13127V7.13127ZM20 9.58308C23.6505 9.58308 24.083 9.59692 25.5246 9.66239C26.8576 9.72296 27.5815 9.94465 28.0633 10.1309C28.7015 10.3777 29.1569 10.6727 29.6353 11.1488C30.1138 11.625 30.41 12.0783 30.658 12.7134C30.8452 13.1929 31.068 13.9134 31.1287 15.2401C31.1945 16.6749 31.2085 17.1053 31.2085 20.7386C31.2085 24.3719 31.1945 24.8023 31.1287 26.2372C31.068 27.5638 30.8452 28.2843 30.658 28.7638C30.41 29.399 30.1138 29.8523 29.6353 30.3285C29.1569 30.8046 28.7015 31.0995 28.0633 31.3464C27.5815 31.5327 26.8576 31.7544 25.5246 31.8148C24.0832 31.8803 23.6508 31.8942 20 31.8942C16.3492 31.8942 15.9169 31.8803 14.4754 31.8148C13.1424 31.7544 12.4185 31.5327 11.9367 31.3464C11.2985 31.0995 10.8431 30.8046 10.3647 30.3285C9.88625 29.8523 9.58992 29.399 9.34195 28.7638C9.15477 28.2843 8.93203 27.5638 8.87117 26.2372C8.80539 24.8023 8.79148 24.3719 8.79148 20.7386C8.79148 17.1053 8.80539 16.6749 8.87117 15.2401C8.93203 13.9134 9.15477 13.1929 9.34195 12.7134C9.58992 12.0783 9.88625 11.625 10.3647 11.1488C10.8431 10.6727 11.2985 10.3777 11.9367 10.1309C12.4185 9.94465 13.1424 9.72296 14.4754 9.66239C15.917 9.59692 16.3495 9.58308 20 9.58308V9.58308ZM20 13.751C16.1226 13.751 12.9793 16.8795 12.9793 20.7386C12.9793 24.5977 16.1226 27.7262 20 27.7262C23.8774 27.7262 27.0207 24.5977 27.0207 20.7386C27.0207 16.8795 23.8774 13.751 20 13.751ZM20 25.2744C17.483 25.2744 15.4427 23.2437 15.4427 20.7386C15.4427 18.2335 17.483 16.2029 20 16.2029C22.517 16.2029 24.5573 18.2335 24.5573 20.7386C24.5573 23.2437 22.517 25.2744 20 25.2744V25.2744ZM28.9387 13.475C28.9387 14.3768 28.2041 15.1078 27.298 15.1078C26.392 15.1078 25.6575 14.3768 25.6575 13.475C25.6575 12.5732 26.392 11.8421 27.298 11.8421C28.2041 11.8421 28.9387 12.5732 28.9387 13.475Z" fill="#F5F5F5"/>
</svg>
