<svg width="41" height="41" viewBox="0 0 41 41" fill="none" xmlns="http://www.w3.org/2000/svg">
<path d="M19.0408 20.7331C23.4608 20.7331 26.0408 15.1794 26.0408 10.7803C26.0408 7.79443 23.4608 4.80859 19.0408 4.80859C14.6208 4.80859 12.0408 7.79443 12.0408 10.7803C12.0408 15.1794 14.6208 20.7331 19.0408 20.7331ZM18.8088 6.79915C21.0088 6.79915 24.5 8.59066 24.5 10.7803C25.5 15.7567 21.2408 19.7378 19.0408 19.7378C16.8408 19.7378 12.7736 15.0368 13.2681 11.2779C13.5536 9.10682 16.6088 6.79915 18.8088 6.79915ZM19.0408 20.7331C13.7008 20.7331 6.19116 23.4004 6.19116 28.6953V34.667H19.0408H32.1912V28.6953C32.1912 23.4004 24.3808 20.7331 19.0408 20.7331ZM30.1912 32.6764H8.19116V29.6906V27.7C8.59116 26.2668 13.6408 22.7236 19.0408 22.7236C24.4408 22.7236 29.7912 26.2867 30.1912 27.7V32.6764Z" fill="#F5F5F5"/>
<path d="M25.5 8.29354C25.5 11.8664 22.5899 8.79118 19 8.79118C15.4101 8.79118 12.5 11.8664 12.5 8.29354C12.5 4.72063 15.4101 1.82422 19 1.82422C22.5899 1.82422 25.5 4.72063 25.5 8.29354Z" fill="#FFA500" fill-opacity="0.7"/>
<path d="M27 8.79118H26C26 6.31031 24.3726 3.91955 22.3684 2.74616V4.33861C22.3684 4.80796 21.9979 5.17674 21.5263 5.17674C21.0547 5.17674 20.6842 4.80796 20.6842 4.33861V2.0589C20.1453 1.92479 19.5895 1.82422 19 1.82422C18.4105 1.82422 17.8547 1.92479 17.3158 2.0589V4.33861C17.3158 4.80796 16.9453 5.17674 16.4737 5.17674C16.0021 5.17674 15.6316 4.80796 15.6316 4.33861V2.74616C13.6274 3.91955 12 6.31031 12 8.79118H11V10.7817H27V8.79118Z" fill="#F5F5F5"/>
<circle cx="16" cy="12.7754" r="1" fill="#F5F5F5"/>
<circle cx="22" cy="12.7754" r="1" fill="#F5F5F5"/>
</svg>
