<svg width="41" height="41" viewBox="0 0 41 41" fill="none" xmlns="http://www.w3.org/2000/svg">
<path d="M19 20.7331C23.42 20.7331 25.8496 15.1794 25.8496 10.7803C25.8496 7.79443 23.2696 4.80859 18.8496 4.80859C14.4296 4.80859 11.8496 7.79443 11.8496 10.7803C11.8496 15.1794 14.58 20.7331 19 20.7331ZM18.8496 10.7803C18.8496 10.7643 18.8496 10.7643 18.8496 10.7803C18.7053 10.7803 18.6831 10.7802 18.8496 10.7803C18.8496 10.7962 18.8496 10.7962 18.8496 10.7803C18.8496 10.7962 18.8496 10.7643 18.8496 10.7803ZM19 20.7331C13.66 20.7331 6 23.4004 6 28.6953V34.667H18.8496H32V28.6953C32 23.4004 24.34 20.7331 19 20.7331ZM30 32.6764H8C10 33.6717 13 33.6717 18 32.6764C24 33.6717 27 33.6717 29 32.6764H30Z" fill="#F5F5F5"/>
<path d="M25.5 8.29354C25.5 11.8664 22.5899 8.79118 19 8.79118C15.4101 8.79118 12.5 11.8664 12.5 8.29354C12.5 4.72063 15.4101 1.82422 19 1.82422C22.5899 1.82422 25.5 4.72063 25.5 8.29354Z" fill="#FFA500" fill-opacity="0.7"/>
<path d="M27 8.79118H26C26 6.31031 24.3726 3.91955 22.3684 2.74616V4.33861C22.3684 4.80796 21.9979 5.17674 21.5263 5.17674C21.0547 5.17674 20.6842 4.80796 20.6842 4.33861V2.0589C20.1453 1.92479 19.5895 1.82422 19 1.82422C18.4105 1.82422 17.8547 1.92479 17.3158 2.0589V4.33861C17.3158 4.80796 16.9453 5.17674 16.4737 5.17674C16.0021 5.17674 15.6316 4.80796 15.6316 4.33861V2.74616C13.6274 3.91955 12 6.31031 12 8.79118H11V10.7817H27V8.79118Z" fill="#A86D00"/>
<circle cx="16" cy="12.7754" r="1" fill="#3F3734"/>
<circle cx="22" cy="12.7754" r="1" fill="#3F3734"/>
<ellipse cx="19" cy="27.7004" rx="13" ry="6.96696" fill="#BC7A00"/>
<rect x="6" y="27.7002" width="26" height="6.96696" fill="#BC7A00"/>
</svg>
