<svg width="41" height="42" viewBox="0 0 41 42" fill="none" xmlns="http://www.w3.org/2000/svg">
<path d="M25.0447 28.1976L28.4081 24.8073L34.6139 30.9282L34.8414 31.1525L35.1406 31.0404C36.5354 30.5175 38.2738 30.8369 39.3946 31.9524C39.9652 32.5204 40.401 33.6622 40.4855 34.7123C40.5272 35.2315 40.4772 35.6678 40.3577 35.9611C40.2893 36.1288 40.2097 36.2295 40.1204 36.2864L37.3636 33.681L37.0079 33.3448L36.6642 33.6933L34.1347 36.258L33.7826 36.615L34.1406 36.9661L36.8982 39.6702C36.8626 39.7796 36.7832 39.8675 36.6485 39.9444C36.4214 40.0743 36.0469 40.1575 35.5474 40.1404C34.5633 40.1067 33.2905 39.6894 32.2544 38.8783C31.1298 37.7439 30.8483 36.1736 31.3986 34.7805L31.5213 34.4699L31.2814 34.2376L25.0447 28.1976Z" fill="#D9D9D9" stroke="#212121"/>
<path d="M19.5814 32.4998L19.5792 32.4979C15.2569 28.6596 11.7926 25.5796 9.39076 22.7039C7.00513 19.8477 5.83325 17.3826 5.83325 14.801C5.83325 10.6319 9.16525 7.32422 13.4999 7.32422C15.9573 7.32422 18.3307 8.45174 19.868 10.2197L20.9999 11.5213L22.1318 10.2197C23.6692 8.45174 26.0425 7.32422 28.4999 7.32422C32.8346 7.32422 36.1666 10.6319 36.1666 14.801C36.1666 17.3827 34.9947 19.8478 32.6088 22.7064C30.2069 25.584 26.743 28.6677 22.4211 32.5138C22.4205 32.5143 22.42 32.5148 22.4194 32.5153L21.0037 33.7678L19.5814 32.4998Z" fill="#BC7A00" stroke="#8C5C02" stroke-width="3"/>
<path d="M16.9574 13.3512L13.5919 16.7636L7.38709 10.6078L7.15907 10.3815L6.85853 10.4949C5.46485 11.0204 3.72739 10.6997 2.60647 9.57746C2.03527 9.00558 1.5991 7.85608 1.51454 6.79872C1.47273 6.27591 1.52277 5.83604 1.64269 5.54004C1.71112 5.37115 1.79065 5.26987 1.87936 5.21251L4.63533 7.83245L4.99215 8.17167L5.33684 7.82013L7.86632 5.24032L8.21532 4.88438L7.86043 4.53431L5.10109 1.81246C5.13656 1.69976 5.21684 1.61008 5.35258 1.53206C5.57942 1.40167 5.95337 1.31804 6.45246 1.33523C7.43593 1.36911 8.7084 1.78856 9.74452 2.60453C10.8698 3.74628 11.1522 5.32806 10.601 6.73165L10.4796 7.04081L10.7175 7.27257L16.9574 13.3512Z" fill="#D9D9D9" stroke="#212121"/>
</svg>
