<svg width="41" height="41" viewBox="0 0 41 41" fill="none" xmlns="http://www.w3.org/2000/svg">
<path d="M28.3698 18.0338C32.3488 18.0338 34.6667 10.659 34.6667 6.80294C34.6667 4.1857 32.2134 4.0752 28.2344 4.0752C24.2554 4.0752 22.0001 4.1857 22.0001 6.80294C22.0001 10.659 24.3908 18.0338 28.3698 18.0338ZM28.2344 9.30969C28.2344 9.29572 28.2344 9.29572 28.2344 9.30969C28.1045 9.30971 28.0845 9.30966 28.2344 9.30969C28.2345 9.32365 28.2345 9.32365 28.2344 9.30969C28.2345 9.32365 28.2344 9.29572 28.2344 9.30969ZM28.3698 18.0338C23.5626 18.0338 16.6669 20.3719 16.6669 25.0132V30.2477L16.6668 39.2786H38.7395L39.4062 25.0132C39.4062 20.3719 33.177 18.0338 28.3698 18.0338ZM38.7395 39.2786L34.7394 36.6245C34.7394 36.6245 31.5717 35.5064 36.0728 34.634C36.0728 34.634 14.8664 40.151 16.6668 39.2786H38.7395Z" fill="#171717"/>
<ellipse cx="26.3335" cy="10.6162" rx="1" ry="0.5" fill="#E9E9E9"/>
<ellipse cx="30.3335" cy="10.6162" rx="1" ry="0.5" fill="#E9E9E9"/>
<path d="M11.7028 21.5075C15.6818 21.5075 18.0001 15.3036 18.0001 11.4476C18.0001 8.83031 15.5464 7.54883 11.5674 7.54883C7.58846 7.54883 5.33341 8.83031 5.33341 11.4476C5.33341 15.3036 7.72384 21.5075 11.7028 21.5075ZM11.5674 12.7833C11.5674 12.7694 11.5674 12.7694 11.5674 12.7833C11.4375 12.7833 11.4175 12.7833 11.5674 12.7833C11.5675 12.7973 11.5675 12.7973 11.5674 12.7833C11.5675 12.7973 11.5674 12.7694 11.5674 12.7833ZM11.7028 21.5075C6.89564 21.5075 2.7006 22.0673 2.7006 26.7085L2.66675 39.3154H11.7028L23.4057 33.7213V28.4868C23.4057 23.8455 16.51 21.5075 11.7028 21.5075ZM21.6053 31.9764L7.33341 31.3532C9.13386 32.2256 6.30149 32.8489 10.8026 31.9764C16.2039 32.8489 18.9046 32.8489 20.7051 31.9764H21.6053Z" fill="#515151"/>
<ellipse cx="8.83333" cy="13.4411" rx="0.833333" ry="0.666667" fill="white"/>
<ellipse cx="13.8333" cy="13.4411" rx="0.833333" ry="0.666667" fill="white"/>
<path d="M21.6651 28.4223C25.644 28.4223 27.9999 23.5542 27.9999 19.6981C27.9999 17.0809 25.5087 14.7588 21.5297 14.7588C17.5507 14.7588 15.2281 17.0809 15.2281 19.6981C15.2281 23.5542 17.6861 28.4223 21.6651 28.4223ZM21.5297 19.6981C21.5296 19.6841 21.5296 19.6841 21.5297 19.6981C21.3998 19.6981 21.3798 19.6981 21.5297 19.6981C21.5297 19.7121 21.5297 19.7121 21.5297 19.6981C21.5297 19.7121 21.5296 19.6841 21.5297 19.6981ZM21.6651 28.4223C16.8579 28.4223 9.96216 30.7603 9.96216 35.4016L10.0001 39.309L21.5297 40.6361L33.3679 39.309V35.4016C33.3679 30.7603 26.4722 28.4223 21.6651 28.4223ZM26.6666 36.655L13.9999 37.982C15.8004 38.8544 16.2637 39.7637 20.7648 38.8913C26.1662 39.7637 26.1995 40.1815 27.9999 39.309L26.6666 36.655Z" fill="#AAAAAA"/>
<ellipse cx="18.9644" cy="21.2399" rx="1.33333" ry="0.666666" fill="black"/>
<ellipse cx="23.4661" cy="21.2399" rx="1.33333" ry="0.666666" fill="black"/>
<rect x="0.5" y="1.33887" width="39" height="38.8112" rx="1.5" stroke="black" stroke-opacity="0.5"/>
<path d="M34.1487 6.4959C34.1487 9.62774 31.5289 6.9321 28.2972 6.9321C25.0656 6.9321 22.4458 9.62774 22.4458 6.4959C22.4458 3.36405 25.0656 0.825195 28.2972 0.825195C31.5289 0.825195 34.1487 3.36405 34.1487 6.4959Z" fill="#8C5C02"/>
<path d="M35.499 6.9321H34.5988C34.5988 4.75749 33.1338 2.66186 31.3296 1.63333V3.02919C31.3296 3.4406 30.996 3.76386 30.5715 3.76386C30.147 3.76386 29.8134 3.4406 29.8134 3.02919V1.0309C29.3282 0.913355 28.8279 0.825195 28.2972 0.825195C27.7666 0.825195 27.2662 0.913355 26.7811 1.0309V3.02919C26.7811 3.4406 26.4475 3.76386 26.023 3.76386C25.5985 3.76386 25.2649 3.4406 25.2649 3.02919V1.63333C23.4607 2.66186 21.9957 4.75749 21.9957 6.9321H21.0955V8.67693H35.499V6.9321Z" fill="#F5F5F5"/>
<path d="M17.554 9.27324C17.554 12.4051 14.9342 9.70945 11.7025 9.70945C8.47086 9.70945 5.85107 12.4051 5.85107 9.27324C5.85107 6.1414 8.47086 3.60254 11.7025 3.60254C14.9342 3.60254 17.554 6.1414 17.554 9.27324Z" fill="#A86D00"/>
<path d="M18.9043 9.70945H18.0041C18.0041 7.53484 16.5391 5.4392 14.7348 4.41067V5.80654C14.7348 6.21795 14.4013 6.5412 13.9768 6.5412C13.5522 6.5412 13.2187 6.21795 13.2187 5.80654V3.80825C12.7335 3.6907 12.2332 3.60254 11.7025 3.60254C11.1719 3.60254 10.6715 3.6907 10.1863 3.80825V5.80654C10.1863 6.21795 9.85279 6.5412 9.42827 6.5412C9.00374 6.5412 8.67018 6.21795 8.67018 5.80654V4.41067C6.86595 5.4392 5.40095 7.53484 5.40095 9.70945H4.50073V11.4543H18.9043V9.70945Z" fill="#F5F5F5"/>
<path d="M27.5166 17.5193C27.5166 20.6512 24.8968 17.9555 21.6652 17.9555C18.4335 17.9555 15.8137 20.6512 15.8137 17.5193C15.8137 14.3875 18.4335 11.8486 21.6652 11.8486C24.8968 11.8486 27.5166 14.3875 27.5166 17.5193Z" fill="#A86D00"/>
<path d="M28.8672 17.9555H27.967C27.967 15.7809 26.502 13.6853 24.6977 12.6568V14.0526C24.6977 14.464 24.3642 14.7873 23.9396 14.7873C23.5151 14.7873 23.1816 14.464 23.1816 14.0526V12.0543C22.6964 11.9368 22.1961 11.8486 21.6654 11.8486C21.1347 11.8486 20.6344 11.9368 20.1492 12.0543V14.0526C20.1492 14.464 19.8157 14.7873 19.3912 14.7873C18.9666 14.7873 18.6331 14.464 18.6331 14.0526V12.6568C16.8288 13.6853 15.3638 15.7809 15.3638 17.9555H14.4636V19.7004H28.8672V17.9555Z" fill="white"/>
<path d="M33.3334 35.9974C33.3334 40.5357 28.6275 36.9161 22.0001 36.9161C15.3727 36.9161 9.33351 41.4544 9.33351 36.9161C8.66682 30.6892 18.0001 27.3716 21.3335 28.6986C24.6668 27.3716 34.0001 29.7705 33.3334 35.9974Z" fill="#8C5C02"/>
<rect x="9.3335" y="36.6582" width="24" height="2.66667" fill="#8C5C02"/>
</svg>
