<svg width="41" height="41" viewBox="0 0 41 41" fill="none" xmlns="http://www.w3.org/2000/svg">
<path d="M28.1667 4.80859C25.2667 4.80859 22.4833 6.12659 20.6667 8.20936C18.85 6.12659 16.0667 4.80859 13.1667 4.80859C8.03333 4.80859 4 8.74632 4 13.758C4 19.9086 9.66667 24.9203 18.25 32.5354L20.6667 34.667L23.0833 32.5191C31.6667 24.9203 37.3333 19.9086 37.3333 13.758C37.3333 8.74632 33.3 4.80859 28.1667 4.80859ZM20.8333 30.1109L20.6667 30.2737L20.5 30.1109C12.5667 23.0979 7.33333 18.4605 7.33333 13.758C7.33333 10.5037 9.83333 8.06292 13.1667 8.06292C15.7333 8.06292 17.75 9.37029 19.4167 11.0291L20.6667 12.6879L22.3333 11.0291C24 9.37029 25.6 8.06292 28.1667 8.06292C31.5 8.06292 34 10.5037 34 13.758C34 18.4605 28.7667 23.0979 20.8333 30.1109Z" fill="#F5F5F5" fill-opacity="0.8"/>
</svg>
