<svg width="41" height="41" viewBox="0 0 41 41" fill="none" xmlns="http://www.w3.org/2000/svg">
<path d="M19.1562 35.666H27.5313C28.8438 35.666 29.9583 35.215 30.875 34.3131C31.7917 33.4111 32.25 32.3069 32.25 31.0006V13.5521C32.25 12.8264 31.9896 12.2044 31.4688 11.686C30.9479 11.1676 30.3229 10.9084 29.5938 10.9084C29.3646 10.9084 29.1406 10.9292 28.9219 10.9706C28.7031 11.0121 28.5104 11.1054 28.3438 11.2506V9.81984C28.3438 9.03191 28.0885 8.35802 27.5781 7.79818C27.0677 7.23833 26.4375 6.95841 25.6875 6.95841C25.4167 6.95841 25.1563 6.9947 24.9062 7.06727C24.6562 7.13984 24.4167 7.25907 24.1875 7.42495C24 6.92731 23.6927 6.53334 23.2656 6.24305C22.8385 5.95276 22.3542 5.80762 21.8125 5.80762C21.0833 5.80762 20.4531 6.0668 19.9219 6.58518C19.3906 7.10355 19.125 7.7256 19.125 8.45133V9.25999C18.9583 9.11485 18.7656 9.01117 18.5469 8.94897C18.3281 8.88676 18.1042 8.85566 17.875 8.85566C17.1458 8.85566 16.5208 9.11485 16 9.63322C15.4792 10.1516 15.2188 10.7736 15.2188 11.4994V25.0601L10.2813 22.2919C9.92708 22.1053 9.5625 22.069 9.1875 22.1831C8.8125 22.2971 8.47917 22.4889 8.1875 22.7585L6 24.6557L15.2813 34.2353C15.7813 34.7537 16.3698 35.1217 17.0469 35.3394C17.724 35.5572 18.4271 35.666 19.1562 35.666ZM19.1562 33.7999C18.7187 33.7999 18.2865 33.7584 17.8594 33.6755C17.4323 33.5925 17.0729 33.4059 16.7812 33.1156L8.8125 24.8734L9.65625 24.0959L17.0938 28.1081V11.4994C17.0938 11.2713 17.1667 11.0847 17.3125 10.9395C17.4583 10.7944 17.6458 10.7218 17.875 10.7218C18.1042 10.7218 18.2917 10.7944 18.4375 10.9395C18.5833 11.0847 18.6562 11.2713 18.6562 11.4994V20.7368H21V8.45133C21 8.22324 21.0729 8.03663 21.2188 7.89148C21.3646 7.74634 21.5521 7.67377 21.7812 7.67377C22.0104 7.67377 22.1979 7.74634 22.3437 7.89148C22.4896 8.03663 22.5625 8.22324 22.5625 8.45133V20.7368H24.9062V9.60212C24.9062 9.37404 24.9792 9.18742 25.125 9.04228C25.2708 8.89713 25.4583 8.82456 25.6875 8.82456C25.9167 8.82456 26.1042 8.89713 26.25 9.04228C26.3958 9.18742 26.4688 9.37404 26.4688 9.60212V20.7368H28.8125V13.5521C28.8125 13.3241 28.8854 13.1374 29.0312 12.9923C29.1771 12.8471 29.3646 12.7746 29.5938 12.7746C29.8229 12.7746 30.0104 12.8471 30.1563 12.9923C30.3021 13.1374 30.375 13.3241 30.375 13.5521V31.0006C30.375 31.7886 30.099 32.4521 29.5469 32.9912C28.9948 33.5303 28.3229 33.7999 27.5313 33.7999H23.3438H19.1562Z" fill="#F5F5F5"/>
</svg>
